<svg xmlns="http://www.w3.org/2000/svg" data-name="Layer 1" width="372.19333" height="664.46398"
    viewBox="0 0 372.19333 664.46398">
    <rect x="5.50001" width="326" height="594" rx="58.72835" fill="#3f3d56" />
    <path
        d="M739.9038,176.50034v476.54a53.29169,53.29169,0,0,1-53.23,53.23h-208.54a53.29169,53.29169,0,0,1-53.23-53.23v-476.54a53.29173,53.29173,0,0,1,53.23-53.23h27.27v9.42a16.08093,16.08093,0,0,0,16.08,16.08c35.30487,10.66486,76.7467,9.00025,121.84,0a16.0809,16.0809,0,0,0,16.08-16.08v-9.42h27.27A53.29174,53.29174,0,0,1,739.9038,176.50034Z"
        transform="translate(-413.90333 -117.76801)" fill="#fff" />
    <path
        d="M417.90333,238.268a4.00459,4.00459,0,0,1-4-4v-8a4,4,0,1,1,8,0v8A4.00458,4.00458,0,0,1,417.90333,238.268Z"
        transform="translate(-413.90333 -117.76801)" fill="#3f3d56" />
    <path
        d="M417.90334,279.2895a4.00458,4.00458,0,0,1-4-4l0-22.02148a4,4,0,1,1,8,0l0,22.02148A4.00458,4.00458,0,0,1,417.90334,279.2895Z"
        transform="translate(-413.90333 -117.76801)" fill="#3f3d56" />
    <path
        d="M417.90334,312.268a4.00458,4.00458,0,0,1-4-4V286.24653a4,4,0,0,1,8,0V308.268A4.00459,4.00459,0,0,1,417.90334,312.268Z"
        transform="translate(-413.90333 -117.76801)" fill="#3f3d56" />
    <path
        d="M745.90474,232.54a3.99675,3.99675,0,0,0-4,3.99v53.74a4,4,0,0,0,8,0V236.53A4.00322,4.00322,0,0,0,745.90474,232.54Z"
        transform="translate(-413.90333 -117.76801)" fill="#3f3d56" />
    <path d="M493.48923,146.84106h-27a5,5,0,0,1,0-10h27a5,5,0,0,1,0,10Z"
        transform="translate(-413.90333 -117.76801)" fill="#e6e6e6" />
    <path
        d="M650.36238,647.49546c-7.52435.47107-11.6828-8.87732-5.99017-14.3258.20843-.82825.358-1.4231.56634-2.25147q-.11178-.27063-.225-.54052c-7.60931-18.14429-23.01678-7.9582-40.94256.1521-14.78485,6.6892-29.68671,15.404-17.32129,49.33618,2.59741,7.12768-.51764,15.19629,1.15271,22.583A263.25839,263.25839,0,0,1,563.6548,593.10936a254.10063,254.10063,0,0,1,1.57611-28.34668q1.30572-11.57393,3.62286-22.983a267.54547,267.54547,0,0,1,35.9173-89.193q-3.29562.04431-6.60223.07141-5.94984,9.71466-11.08942,19.89075a100.252,100.252,0,0,0,.38507-19.849c-26.7309-.00952-53.44208-.8645-77.05841-2.56482.89581,72.37872,27.61322,87.47192,60.3764,52.80652.91748.47046,1.81159.94079,2.729,1.38806a273.58182,273.58182,0,0,0-14.72608,69.30164,259.47434,259.47434,0,0,0,.18824,41.89636q-.03543-.2472-.07062-.494a68.56539,68.56539,0,0,0-23.40656-39.59094C517.4839,560.646,492.03554,555.197,472.60316,543.30345c-9.35418-5.72534-21.34088,1.67334-19.70831,12.51831q.03909.25964.07947.51941a75.33161,75.33161,0,0,1,8.44507,4.06945q2.34145,1.32129,4.5841,2.8042c8.52069,5.63538,5.57593,18.844-4.52014,20.40247l-.22882.035c-.16461.02369-.30579.04725-.47022.0708a111.64546,111.64546,0,0,0,20.53632,32.15723c2.40912,74.33795,41.52173,64.7522,83.3692,36.58h.02362a273.50284,273.50284,0,0,0,18.37238,53.63488h65.6319c.23541-.72924.447-1.48217.65887-2.21142a74.57779,74.57779,0,0,1-18.16077-1.08179c4.86957-5.97534,9.739-11.99756,14.60846-17.97265a4.08882,4.08882,0,0,0,.30585-.35279c2.47-3.0581,4.96356-6.09277,7.43353-9.15075l.00135-.00379a109.22845,109.22845,0,0,0-3.20057-27.82519Z"
        transform="translate(-413.90333 -117.76801)" fill="#6c63ff" />
    <path
        d="M580.42744,420.79563c-6.36712-15.3601-18.30139-28.29626-28.81091-41.57495-12.62366-15.94983-38.50964-8.989-40.73364,11.22974q-.03233.2937-.063.58716,2.34154,1.32091,4.5841,2.8042c8.52076,5.63525,5.576,18.84387-4.52014,20.40234l-.22857.03516a111.55107,111.55107,0,0,0,2.94042,16.67871,101.22388,101.22388,0,0,0-3.18957,19.177c23.61633,1.70032,50.32751,2.5553,77.05841,2.56482C586.59791,440.94334,583.98372,429.36692,580.42744,420.79563Z"
        transform="translate(-413.90333 -117.76801)" fill="#e6e6e6" />
    <path
        d="M649.1407,401.33006a54.06007,54.06007,0,0,0,4.91656-14.77307c-1.43487.18823-5.41058-21.6659-4.3283-23.00659-1.99976-3.03455-5.57892-4.543-7.763-7.504-10.862-14.72669-25.82709-12.15528-33.63947,7.85693-16.68915,8.4231-16.85065,22.39209-6.61029,35.82715,6.51495,8.54736,7.41009,20.113,13.12653,29.26367-.5882.75293-1.19983,1.48218-1.78791,2.23511a263.6194,263.6194,0,0,0-16.886,24.42883q3.30633-.02691,6.60223-.07141a259.31316,259.31316,0,0,1,16.894-23.67529A70.8715,70.8715,0,0,0,649.1407,401.33006Z"
        transform="translate(-413.90333 -117.76801)" fill="#e6e6e6" />
    <path
        d="M739.242,176.28384v254.54c0,29.35-315,29.35-315,0v-254.54a53.29173,53.29173,0,0,1,53.23-53.23h27.27v9.42a16.08091,16.08091,0,0,0,16.08,16.08c33.80536,10.61731,75.53937,8.86946,121.84,0a16.08092,16.08092,0,0,0,16.08-16.08v-9.42h27.27A53.29174,53.29174,0,0,1,739.242,176.28384Z"
        transform="translate(-413.90333 -117.76801)" opacity="0.1" />
    <path
        d="M611.69472,203.79h-9a13.01442,13.01442,0,0,0-13,13v10h-16a13.01442,13.01442,0,0,0-13,13v20a13.01442,13.01442,0,0,0,13,13h20a13.01443,13.01443,0,0,0,13-13v-20a13.01443,13.01443,0,0,0-13-13h-2v-10a11.01245,11.01245,0,0,1,11-11h9a11.01245,11.01245,0,0,1,11,11v11h2v-11A13.01443,13.01443,0,0,0,611.69472,203.79Zm-7,36v20a11.01245,11.01245,0,0,1-11,11h-20a11.01245,11.01245,0,0,1-11-11v-20a11.01245,11.01245,0,0,1,11-11c9.46936,5.50931,14.6864,2.65979,20,0A11.01245,11.01245,0,0,1,604.69472,239.79Z"
        transform="translate(-413.90333 -117.76801)" fill="#fff" />
    <path
        d="M583.69472,258.79a9,9,0,1,0-9-9A9.01047,9.01047,0,0,0,583.69472,258.79Zm0-11c3.85986,0,7-1.85986,7,2a7,7,0,1,1-14,0C576.69472,245.93016,579.83485,247.79,583.69472,247.79Z"
        transform="translate(-413.90333 -117.76801)" fill="#fff" />
    <circle cx="169.79138" cy="132.02201" r="3" fill="#fff" />
    <rect x="328.79138" y="144.02201" width="7.21002" height="2" fill="#fff" />
    <path
        d="M424.69472,425.84251v5c0,29.35,315.00006,29.35,315.00006,0v-5C739.69478,455.19255,424.69472,455.19255,424.69472,425.84251Z"
        transform="translate(-413.90333 -117.76801)" opacity="0.1" />
    <path
        d="M702.92212,497.38583a7.66482,7.66482,0,0,0,6.019-8.83539,7.35338,7.35338,0,0,0-.32684-1.17085l20.48877-17.18278-5.061-13.46408-25.52221,26.57279a7.64356,7.64356,0,0,0-4.32567,8.2685,7.31488,7.31488,0,0,0,8.53095,5.8513h0Q702.82388,497.40695,702.92212,497.38583Z"
        transform="translate(-413.90333 -117.76801)" fill="#a0616a" />
    <path
        d="M712.56955,395.9963l-8.125,6.47911s-9.70985,17.6533-2.74979,21.31461,28.59761,15.8377,28.59761,15.8377-8.94252,8.90234-9.99734,13.22609,1.2801,8.16554-2.42595,7.26141-3.81138,2.04-4.71552,5.74613-6.9308,7.11915-6.9308,7.11915L717.74237,481.48s5.33213,1.883,5.76928-2.59141-.77732-3.8432,2.92873-2.93907,6.82893-4.89531,8.80281-10.3037S757.357,435.06358,757.357,435.06358l-21.07131-23.44831a55.99761,55.99761,0,0,0-23.71613-15.619Z"
        transform="translate(-413.90333 -117.76801)" fill="#6c63ff" />
    <polygon
        points="296.815 645.673 288.426 645.602 284.713 612.491 297.094 612.596 296.815 645.673"
        fill="#a0616a" />
    <path
        d="M683.84838,776.78025a3.75542,3.75542,0,0,0,3.71838,3.78334l16.67866.13917,2.91983-5.91847,1.07238,5.94865,6.29322.05708-1.58913-21.21673-2.18949-.14567-8.93065-.61562-2.88122-.19294-.05055,6.003-13.398,9.08746A3.74906,3.74906,0,0,0,683.84838,776.78025Z"
        transform="translate(-413.90333 -117.76801)" fill="#2f2e41" />
    <polygon
        points="219.799 645.673 211.411 645.602 207.697 612.491 220.078 612.596 219.799 645.673"
        fill="#a0616a" />
    <path
        d="M606.83287,776.78025a3.75543,3.75543,0,0,0,3.71838,3.78334l16.67867.13917,2.91983-5.91847,1.07238,5.94865,6.29321.05708-1.58912-21.21673-2.1895-.14567-8.93065-.61562-2.88121-.19294-.05056,6.003-13.398,9.08746A3.74909,3.74909,0,0,0,606.83287,776.78025Z"
        transform="translate(-413.90333 -117.76801)" fill="#2f2e41" />
    <path
        d="M655.40562,483.05509s-16.10772,7.93487-11.90849,12.7113.74772,7.47723-4.48634,11.96357-15.77119,57.03982-15.77119,57.03982l-13.64408,81.40908s3.62009,71.08438,6.04955,73.616,6.16808-1.207,2.42946,2.53166-6.72951.74772-3.73861,3.73862,3.73861,11.21585,3.73861,11.21585l19.376-1.6329s12.61222-54.6393,4.09532-78.84383l33.412-88.54468,10.10128,85.43659s5.54452,69.37807,9.28314,71.62124,6.43216,2.39441,3.21608,5.30968-3.21608-1.57106-3.21608,2.91528v7.44128l18.087,2.48262s8.40124-66.51072,4.50366-97.28745L728.73759,542.873l-9.19568-46.55314-9.4974-12.517Z"
        transform="translate(-413.90333 -117.76801)" fill="#2f2e41" />
    <path
        d="M577.67692,457.876a7.66484,7.66484,0,0,0,10.58468-1.50252,7.35381,7.35381,0,0,0,.64523-1.03023l26.50085,3.56975,6.54257-12.80976-36.83156-.9652a7.64359,7.64359,0,0,0-9.02508,2.37228,7.31487,7.31487,0,0,0,1.42144,10.24667l0,0Q577.59515,457.81757,577.67692,457.876Z"
        transform="translate(-413.90333 -117.76801)" fill="#a0616a" />
    <path
        d="M659.11412,396.71312l-10.26166-1.6412s-12.31635,6.72441-10.33438,14.33488.28484,29.79459.28484,29.79459-12.60334-.61319-16.50961,1.51954-5.17306,6.44625-7.0011,3.098.09945-5.125-3.24879-3.2969-14.10485,3.35461-14.10485,3.35461l-4.32416,14.7238s6.00781,8.26149,9.60939,5.57074,4.31037-6.69963,6.13841-3.35141,2.33794,9.58924,7.66495,7.40521,43.37929-12.0939,43.37929-12.0939l4.59907-45.97384Z"
        transform="translate(-413.90333 -117.76801)" fill="#6c63ff" />
    <path
        d="M649.0992,494.40635s-7.24515-11.56321-5.86576-13.25884,3.107,1.23541,0-1.72555,14.31692-22.7215,15.46124-25.63194S641.254,400.0578,641.254,400.0578l15.82877-9.53341,13.378-18.82142,23.9257,3.82759,8.41812,17.06417L714.69472,396.79l1,1v31s5.29174,26.46053-6.3509,35.5703c0,0,5.555,12.10068,4.05955,14.34385s25.393,31.7186,4.29135,35.08585C694.58058,517.47843,645.27748,493.099,649.0992,494.40635Z"
        transform="translate(-413.90333 -117.76801)" fill="#6c63ff" />
    <path
        d="M530.42662,781.042a1.18647,1.18647,0,0,0,1.19007,1.19h253.29a1.19,1.19,0,1,0,0-2.38h-253.29A1.1865,1.1865,0,0,0,530.42662,781.042Z"
        transform="translate(-413.90333 -117.76801)" fill="#ccc" />
    <circle cx="272.04477" cy="234.28323" r="24.36323" fill="#a0616a" />
    <path
        d="M704.774,334.03962c-.25072-2.19259-1.75349-4.90251-2.79881-6.84612s-3.06386-3.53086-5.26657-3.39541a5.61774,5.61774,0,0,0-4.30378,2.92477,11.78117,11.78117,0,0,0-1.33878,5.20131,27.24121,27.24121,0,0,0,8.858,21.6906c1.70752,1.53143,3.76246,2.89432,6.05554,2.94619a7.81088,7.81088,0,0,0,5.53181-2.48805c3.71167-3.71719,4.2729-9.82825,2.29062-14.69288s-2.86687-6.75757-7.3982-9.41485"
        transform="translate(-413.90333 -117.76801)" fill="#2f2e41" />
    <path
        d="M670.54865,369.07982c.40744,2.16759-3.341,12.476-2.14317,14.33387,0,0,12.40376,4.30822,17.14642,4.61788,5.79385.37481,10.45385-2.00208,15.87288-5.57945a12.16611,12.16611,0,0,1,1.63794-5.50865,7.3713,7.3713,0,0,0,.766,3.76479c20.29577-5.04187,15.32715-23.25519,3.069-31.78808l-8.14889-18.74245c2.44467.81489-4.93507-11.77582-12.71724-2.65722-9.73793-9.91723-28.60243,4.35955-30.96593,17.11268,2.27437-2.87857,3.4589-2.53917,4.04222-.55407a11.22523,11.22523,0,0,1,3.09638-4.32712,9.38217,9.38217,0,0,0-1.01046,4.327c15.36063.95341,12.50169,11.31619-.08849,26.83986,4.65576-2.89827,1.514,9.591,4,12.57626C665.22744,381.409,670.10862,371.10889,670.54865,369.07982Z"
        transform="translate(-413.90333 -117.76801)" fill="#2f2e41" />
    <path
        d="M692.71555,349.12077a.815.815,0,0,0,.22243-1.59875,9.87188,9.87188,0,0,1-.05571-3.03514c.265-4.50138.70865-12.03512-6.60545-17.12061a.8147.8147,0,0,0-.93028,1.33772c6.56367,4.56425,6.16976,11.258,5.90874,15.687-.14881,2.5322-.25664,4.36133,1.27923,4.70948A.80939.80939,0,0,0,692.71555,349.12077Z"
        transform="translate(-413.90333 -117.76801)" fill="#6c63ff" />
    <path
        d="M692.33576,331.31055A45.96173,45.96173,0,0,1,707.9869,327.842c4.26733-.18084,9.35859.7707,11.09332,4.67371,1.05238,2.36778.49173,5.14315-.47093,7.54881s-5.46163,7.262-2.87106,7.209c6.50672-.133,9.28418,5.68533,5.98346,14.72653-1.9143,5.24353,9.96372,5.04178,15.50145,5.7436-4.16056,1.54366-8.38488,3.102-12.8071,3.47222s-9.145-.59106-12.44682-3.55608c-3.573-3.2086-4.946-8.19208-5.55375-12.95573s-.63921-9.6697-2.254-14.19234-5.324-8.73453-10.10946-9.13562"
        transform="translate(-413.90333 -117.76801)" fill="#2f2e41" />
</svg>