<svg xmlns="http://www.w3.org/2000/svg" data-name="Layer 1" width="905.71938" height="561.28166"
    viewBox="0 0 905.71938 561.28166">
    <path id="bfbd69ed-0a30-4239-a70d-8568b89194ba-103" data-name="Path 3"
        d="M934.20177,609.47929q-.30255-.38376-.60026-.76867t-.59329-.77222q-.29469-.38691-.58727-.77617t-.58228-.78274q-.48517-11.282-.01356-22.365.46068-11.004,1.86231-21.744,1.38453-10.65927,3.66912-20.98942,2.266-10.25109,5.402-20.11524.35749-1.137.7276-2.26531t.75451-2.24183q.38235-1.11876.77779-2.22755t.80262-2.20933q3.02024-8.23674,6.64886-16.07,3.60323-7.77887,7.78372-15.12728,4.14777-7.29715,8.84484-14.14428,4.66339-6.79629,9.84585-13.1174l.54459-.6612.54617-.65726.54814-.65424.54973-.65031.3963-.46683.4-.46527q.20118-.23157.40379-.46145t.4118-.45478l.32795-.17959.32622-.17814.32493-.17762.3236-.1771.02022-.00658.02048-.00974.02047-.00974.02061-.0075.13057-.07145.12873-.07223.1265-.07209.12335-.07235.56428-.30263.56232-.298.56193-.29711.55772-.3-.42541-.2133-1.069-.53181.00735-.00447q.13792.05893.27313.12431t.27234.12616q.13781.06432.27155.128t.27038.13075l.103.044.10483.04479.10575.04519a.72633.72633,0,0,1,.10248.05031.55486.55486,0,0,0,.092.03929l.092.0393.092.03929.092.0393c3.894,1.78452,7.79815,3.59623,11.65158,5.49609s7.6476,3.87988,11.33925,6.01076a121.14051,121.14051,0,0,1,10.68841,6.91039,87.69029,87.69029,0,0,1,9.71351,8.14351,63.86176,63.86176,0,0,1,8.552,10.32237,56.72887,56.72887,0,0,1,6.01237,11.7384,42.01427,42.01427,0,0,1,2.62024,12.266,30.20006,30.20006,0,0,1-1.66982,11.89452q-.273.74572-.58927,1.47075t-.67427,1.42791q-.358.70288-.75862,1.381t-.84088,1.33171q-.18393.27265-.37534.53995t-.38756.53037q-.19706.2627-.39873.52343t-.40806.51727a27.209,27.209,0,0,1-9.481,7.57283,30.323,30.323,0,0,1-11.85088,2.939,34.77022,34.77022,0,0,1-12.71958-1.84618,38.025,38.025,0,0,1-12.023-6.7444,38.66364,38.66364,0,0,1-3.49489-3.27346,38.20853,38.20853,0,0,1-3.03389-3.6474,37.3045,37.3045,0,0,1-2.53356-3.96322,35.99965,35.99965,0,0,1-1.99128-4.22195,31.56712,31.56712,0,0,0,2.04853,13.21468,50.55983,50.55983,0,0,0,6.89739,12.36232,90.08769,90.08769,0,0,0,10.04568,11.24224c3.681,3.53023,7.5924,6.8392,11.45457,9.88681s7.86111,6.16451,11.73321,9.41537a131.58879,131.58879,0,0,1,11.02781,10.22643,67.02159,67.02159,0,0,1,8.89872,11.48077,43.47015,43.47015,0,0,1,5.34261,13.227,34.426,34.426,0,0,1-.16485,15.43238,36.947,36.947,0,0,1-2.52521,7.152,40.38832,40.38832,0,0,1-3.91428,6.57263l-.14147.18857-.14108.18766-.14424.1874-.147.18623a44.711,44.711,0,0,1-13.59386,11.803,45.59213,45.59213,0,0,1-8.369,3.65461,47.10049,47.10049,0,0,1-9.13993,1.967,59.57013,59.57013,0,0,1-17.66538-1.01131,78.58412,78.58412,0,0,1-17.31621-5.79374,105.26219,105.26219,0,0,1-16.32261-9.51132,130.05256,130.05256,0,0,1-14.70172-12.11376q-1.83219-1.74635-3.5988-3.55709t-3.46514-3.68159q-1.70128-1.872-3.32713-3.801T934.20177,609.47929Z"
        transform="translate(-147.14031 -169.35917)" fill="#f2f2f2" />
    <path id="a2347809-d406-465d-97ee-6d57ebf46a78-104" data-name="Path 4"
        d="M1029.15308,522.33328a86.0521,86.0521,0,0,1-10.50146-6.44446,86.92357,86.92357,0,0,1-17.71419-16.95147,83.7608,83.7608,0,0,1-6.81892-10.1256,81.81273,81.81273,0,0,1-4.48767-9.25457,77.52607,77.52607,0,0,1-3.19538-9.51255,72.92394,72.92394,0,0,1-1.87035-9.62062,68.32012,68.32012,0,0,1-.52415-9.5848q.00706-.271.01254-.53837t.01255-.53837q.007-.271.02082-.53484l.02633-.53247q-.22971.18132-.45877.36619l-.45668.37144-.4547.37445-.45286.37525-.2911.241-.29189.24285-.29044.24455-.28729.2448.3959-.46591.40665-.4809q.20117-.23159.40379-.46146t.4118-.45477l.32794-.17959.32624-.17814.31821-.17723.32361-.17709.02021-.00659.02047-.00974.02048-.00974.0206-.0075.13058-.07144.12965-.07184.1265-.07209.12335-.07236.56429-.30262.56232-.298.56193-.29711.56233-.298-.43959-.21828-1.06863-.53272.00734-.00447q.13794.05893.27313.12431t.27234.12615q.1378.06432.27155.128t.27037.13075l.103.044.10483.04479.10575.04518a.70753.70753,0,0,1,.10155.04992l-.00954.16992-.01243.15889-.00889.15824-.00875.16046a64.9805,64.9805,0,0,0,.83662,16.14519,72.71274,72.71274,0,0,0,4.77914,15.95062,79.62154,79.62154,0,0,0,8.46966,15.0122,83.98137,83.98137,0,0,0,11.85893,13.30782,85.4479,85.4479,0,0,0,14.46,10.43474,83.21627,83.21627,0,0,0,7.87775,3.975,80.63856,80.63856,0,0,0,8.18769,3.07648q-.18392.27267-.37534.53995t-.38756.53038q-.19705.2627-.39873.52343t-.40806.51727q-1.60988-.53345-3.20276-1.13466t-3.16955-1.26837q-1.57667-.66716-3.13174-1.40011T1029.15308,522.33328Z"
        transform="translate(-147.14031 -169.35917)" fill="#fff" />
    <path id="fd435d97-ab67-4bbc-9247-61e184ba81ed-105" data-name="Path 5"
        d="M956.90309,562.65839q-1.79249-2.67656-3.384-5.45208t-2.97434-5.62941q-1.38288-2.85387-2.55459-5.77955t-2.12245-5.90266q-.48573-1.57882-.896-3.16889t-.74326-3.18521q-.333-1.59513-.59123-3.19746t-.436-3.20182q-.09037-.74547-.16208-1.49383t-.12769-1.49544q-.05557-.748-.09447-1.49429t-.06243-1.4904q.35749-1.137.7276-2.2653t.75242-2.24708q.38232-1.11876.77779-2.22755t.80484-2.20947q-.08947.922-.15266,1.8487t-.10052,1.859q-.03732.93231-.04837,1.86933t.00362,1.87742q-.00155.51263.009,1.025t.02737,1.0252q.01817.51234.04485,1.02506t.061,1.02544a65.149,65.149,0,0,0,1.79754,11.36642,76.15734,76.15734,0,0,0,3.68828,11.05421,91.501,91.501,0,0,0,5.31233,10.62805,110.00013,110.00013,0,0,0,6.65884,10.09308q3.87966,5.24631,8.20154,10.21613t8.972,9.66774q4.65431,4.69318,9.58154,9.09629t10.01945,8.50151q5.21393,4.20806,10.63943,8.09654t11.02724,7.43578q5.59991,3.5465,11.36815,6.74735t11.66688,6.03549a1.65492,1.65492,0,0,1,.481.35558,1.71867,1.71867,0,0,1,.32145.48968,1.66291,1.66291,0,0,1,.13586.56263,1.519,1.519,0,0,1-.07565.57664,1.23255,1.23255,0,0,1-.08418.23264,1.17947,1.17947,0,0,1-.1257.20511,1.14831,1.14831,0,0,1-.16342.17376,1.1296,1.1296,0,0,1-.19628.13362.95918.95918,0,0,1-.23089.07208,1.0002,1.0002,0,0,1-.24251.01274,1.05246,1.05246,0,0,1-.24376-.04543,1.11994,1.11994,0,0,1-.23541-.10059q-.72926-.34966-1.45735-.70207t-1.45329-.709q-.72612-.357-1.44949-.72048t-1.44557-.73728q-6.012-3.08857-11.86374-6.547t-11.52762-7.27766q-5.674-3.81849-11.14273-7.97992t-10.70687-8.65385c-3.3734-2.88334-6.70292-5.8643-9.95337-8.94632s-6.41946-6.263-9.47-9.5456-5.98029-6.66475-8.75532-10.14935S959.32237,566.3444,956.90309,562.65839Z"
        transform="translate(-147.14031 -169.35917)" fill="#fff" />
    <path id="e3ba7b84-95ab-4be0-b084-77760c6da15d-106" data-name="Path 1"
        d="M1032.40916,276.24314l-2.871.373,19.25-72.249a31.1879,31.1879,0,0,0,.673-14.853,19.606,19.606,0,0,0-5.987-10.465,22.412,22.412,0,0,0-11.275-5.233,38.793,38.793,0,0,0-15.276.684h0l-130.828,29.794a46.1996,46.1996,0,0,0-12.961,5.332,67.96751,67.96751,0,0,0-12.134,9.2,74.16767,74.16767,0,0,0-10.159,11.847,60.38994,60.38994,0,0,0-7.016,13.408h0l-136.885,376.499a77.74244,77.74244,0,0,0-4.4,19.21,58.29213,58.29213,0,0,0,.839,17.455,35.862,35.862,0,0,0,5.908,13.871,22.537,22.537,0,0,0,10.842,8.178h0l138.228,47.586a35.98937,35.98937,0,0,0,19.077,1.136,47.78446,47.78446,0,0,0,18.695-8.609,66.20753,66.20753,0,0,0,15.782-16.913,79.75411,79.75411,0,0,0,10.361-23.31h0l92.672-347.808,2.908-.233Z"
        transform="translate(-147.14031 -169.35917)" fill="#2f2e41" />
    <path id="b5993d63-c6a8-428b-8f96-914fd0c3ef98-107" data-name="Path 1"
        d="M1022.40916,272.24314l-2.871.373,19.25-72.249a31.1879,31.1879,0,0,0,.673-14.853,19.606,19.606,0,0,0-5.987-10.465,22.412,22.412,0,0,0-11.275-5.233,38.793,38.793,0,0,0-15.276.684h0l-130.828,29.794a46.1996,46.1996,0,0,0-12.961,5.332,67.96751,67.96751,0,0,0-12.134,9.2,74.16767,74.16767,0,0,0-10.159,11.847,60.38994,60.38994,0,0,0-7.016,13.408h0l-136.885,376.499a77.74244,77.74244,0,0,0-4.4,19.21,58.29213,58.29213,0,0,0,.839,17.455,35.862,35.862,0,0,0,5.908,13.871,22.537,22.537,0,0,0,10.842,8.178h0l138.228,47.586a35.98937,35.98937,0,0,0,19.077,1.136,47.78446,47.78446,0,0,0,18.695-8.609,66.20753,66.20753,0,0,0,15.782-16.913,79.75411,79.75411,0,0,0,10.361-23.31h0l92.672-347.808,2.908-.233Z"
        transform="translate(-147.14031 -169.35917)" fill="#3f3d56" />
    <path id="f76bb9a3-d246-4a39-a954-55c4fdcd575d-108" data-name="Path 2"
        d="M1005.76614,179.92714l-19.231,4.213a11.21675,11.21675,0,0,1-.485,4.945,20.00019,20.00019,0,0,1-2.579,5.234,27.793,27.793,0,0,1-9.734,8.759q-.7.372-1.395.687t-1.39.572q-.692.257-1.375.454t-1.35.332l-75.19,15.225a8.92215,8.92215,0,0,1-4.235-.048,5.2,5.2,0,0,1-2.8-1.886,6.20589,6.20589,0,0,1-1.142-3.38,11.91923,11.91923,0,0,1,.721-4.549q.2-.589.456-1.186t.558-1.194q.3-.6.655-1.194t.749-1.187l-14.237,3.119a34.19422,34.19422,0,0,0-9.736,3.94,50.63352,50.63352,0,0,0-9.156,6.9,55.39245,55.39245,0,0,0-7.67,8.932,44.98356,44.98356,0,0,0-5.265,10.107l-136.628,379.771a57.81808,57.81808,0,0,0-3.246,14.478,43.02588,43.02588,0,0,0,.737,13.06,26.348,26.348,0,0,0,4.537,10.266,16.72,16.72,0,0,0,8.167,5.935h0l139.245,45.238a27.10035,27.10035,0,0,0,14.206.637,35.9807,35.9807,0,0,0,13.81-6.479,49.53288,49.53288,0,0,0,11.632-12.5,59.48867,59.48867,0,0,0,7.687-17.178h0l127.226-469.482a23.52291,23.52291,0,0,0,.577-11.046,14.745,14.745,0,0,0-4.357-7.867,16.61,16.61,0,0,0-8.343-4.021A28.64674,28.64674,0,0,0,1005.76614,179.92714Z"
        transform="translate(-147.14031 -169.35917)" fill="#fff" />
    <path d="M931.0915,359.79129H654.09575V265.92562H931.0915Z"
        transform="translate(-147.14031 -169.35917)" fill="#fff" />
    <rect x="431.49484" y="223.5612" width="271.47423" height="131.59598" fill="#fff" />
    <circle cx="475.59722" cy="267.11689" r="19.63676" fill="#6c63ff" />
    <path
        d="M668.08906,423.38489a3.27279,3.27279,0,0,0,0,6.54558H822.37787a3.2728,3.2728,0,0,0,0-6.54558Z"
        transform="translate(-147.14031 -169.35917)" fill="#e6e6e6" />
    <path
        d="M668.08906,443.0216a3.2728,3.2728,0,1,0-.01381,6.54558H734.48a3.27279,3.27279,0,1,0,0-6.54558Z"
        transform="translate(-147.14031 -169.35917)" fill="#e6e6e6" />
    <path
        d="M607.67561,474.41513c-2.48954,0-4.51544,1.46834-4.51544,3.2728s2.0259,3.27278,4.51544,3.27278H820.54667c2.48957,0,4.51544-1.46837,4.51544-3.27278s-2.02593-3.2728-4.51544-3.2728Z"
        transform="translate(-147.14031 -169.35917)" fill="#e6e6e6" />
    <path
        d="M607.67561,494.05187c-2.48954,0-4.51544,1.46831-4.51544,3.27278s2.0259,3.27277,4.51544,3.27277H771.54667c2.48957,0,4.51544-1.46836,4.51544-3.27277s-2.02593-3.27278-4.51544-3.27278Z"
        transform="translate(-147.14031 -169.35917)" fill="#e6e6e6" />
    <path
        d="M852.87011,527.27709H575.87437V390.15959H852.87011Zm-271.47423-5.52151H847.3486V395.6811H581.39588Z"
        transform="translate(-147.14031 -169.35917)" fill="#e6e6e6" />
    <circle cx="553.81861" cy="142.88292" r="19.63676" fill="#6c63ff" />
    <path
        d="M746.31045,299.15092a3.27279,3.27279,0,0,0,0,6.54558H900.59926a3.2728,3.2728,0,0,0,0-6.54558Z"
        transform="translate(-147.14031 -169.35917)" fill="#e6e6e6" />
    <path
        d="M746.31045,318.78763a3.2728,3.2728,0,1,0-.01381,6.54558H867.70139a3.27279,3.27279,0,1,0,0-6.54558Z"
        transform="translate(-147.14031 -169.35917)" fill="#e6e6e6" />
    <path
        d="M931.0915,359.79129H654.09575V265.92562H931.0915Zm-271.47424-5.52151H925.57V271.44713H659.61726Z"
        transform="translate(-147.14031 -169.35917)" fill="#e6e6e6" />
    <polygon points="239.685 547.988 253.648 547.988 260.291 494.129 239.682 494.13 239.685 547.988"
        fill="#ffb6b6" />
    <path
        d="M383.83328,713.35706h43.88443a0,0,0,0,1,0,0v16.95535a0,0,0,0,1,0,0H398.72015a14.88687,14.88687,0,0,1-14.88687-14.88687v-2.06848A0,0,0,0,1,383.83328,713.35706Z"
        transform="translate(664.44362 1274.29178) rotate(179.99738)" fill="#2f2e41" />
    <polygon points="100.06 529.892 112.296 536.619 144.066 492.624 126.007 482.696 100.06 529.892"
        fill="#ffb6b6" />
    <path
        d="M239.70178,703.8357h43.88444a0,0,0,0,1,0,0v16.95535a0,0,0,0,1,0,0H254.58864a14.88686,14.88686,0,0,1-14.88686-14.88686V703.8357A0,0,0,0,1,239.70178,703.8357Z"
        transform="translate(0.61194 1293.20522) rotate(-151.19904)" fill="#2f2e41" />
    <path
        d="M386.1729,687.45325a5.12465,5.12465,0,0,1-5.07771-4.46569L363.63255,548.42281a2.84741,2.84741,0,0,0-5.31712-1.00881L285.53825,679.45282a5.15321,5.15321,0,0,1-6.31286,2.31682l-15.86323-6.044a5.12482,5.12482,0,0,1-2.92244-6.72134l50.41451-123.846a3.9477,3.9477,0,0,0,.25749-.981c6.82839-52.8509,24.202-79.72737,29.364-86.70564a3.969,3.969,0,0,0,.56474-3.61371l-.70962-2.12885a5.12261,5.12261,0,0,1,.98629-4.98511c18.60048-21.18619,51.02041-9.62544,51.34575-9.50643l.16238.06007.10178.139c36.3523,49.85449,22.91156,211.78064,19.84814,243.73454a5.11119,5.11119,0,0,1-4.70844,4.61251l-21.49595,1.655C386.43734,687.4488,386.3047,687.45325,386.1729,687.45325Z"
        transform="translate(-147.14031 -169.35917)" fill="#2f2e41" />
    <circle cx="229.1764" cy="113.11304" r="31.0749" fill="#ffb8b8" />
    <path
        d="M328.27439,480.20827l91.4397,8.32248c-7.972-27.7204-15.276-55.34333-9.32248-82.8664,7.56021-24.57156,8.26306-38.18353-11.68077-49.75567l-13.46579-30.0391-24.37068-.8862L348.991,321.72627a78.25626,78.25626,0,0,0-11.10751,51.75006C343.04928,412.65459,341.65428,449.00978,328.27439,480.20827Z"
        transform="translate(-147.14031 -169.35917)" fill="#6c63ff" />
    <path
        d="M342.15391,341.54051l-9.19763-42.21484a64.25737,64.25737,0,0,1,1.4049-30.06885,24.65241,24.65241,0,0,1,1.117-2.93555A33.75806,33.75806,0,0,1,364.0637,246.707c20.903-1.44385,23.9718.75976,24.72754,1.84668,11.81176-.477,20.97082,4.08642,25.14978,12.53125a6.38077,6.38077,0,0,1-3.98426,8.936c-5.83764,1.68311-14.04284,3.55274-20.19629,3.00293-12.33471,14.79492-7.29223,41.90186,5.22181,58.05274l.49182.63476-12.39868,2.541-14.40833-20.06494a2.1342,2.1342,0,0,0-3.82385,1.67529l4.37451,21.251Z"
        transform="translate(-147.14031 -169.35917)" fill="#2f2e41" />
    <polygon points="867.081 561.282 0 561.282 0 559.101 867.476 559.101 867.081 561.282"
        fill="#cacaca" />
    <path d="M519.77193,455.2124,293.6113,615.14366l-54.196-76.63915L465.576,378.57325Z"
        transform="translate(-147.14031 -169.35917)" fill="#fff" />
    <circle cx="304.42012" cy="549.26308" r="19.63675"
        transform="translate(-408.40458 107.20865) rotate(-35.26633)" fill="#6c63ff" />
    <path
        d="M333.89,512.38946a3.27279,3.27279,0,0,0,3.77927,5.34432l125.97326-89.083a3.2728,3.2728,0,0,0-3.77928-5.34431Z"
        transform="translate(-147.14031 -169.35917)" fill="#e6e6e6" />
    <path
        d="M345.22785,528.42238a3.2728,3.2728,0,0,0,3.768,5.35229l.01127-.008L448.12,463.67824a3.27279,3.27279,0,1,0-3.77927-5.34432Z"
        transform="translate(-147.14031 -169.35917)" fill="#e6e6e6" />
    <path
        d="M519.77193,455.2124,293.6113,615.14366l-54.196-76.63915L465.576,378.57325ZM294.93148,607.44748,512.07575,453.89222l-47.82-67.62278L247.1115,539.8247Z"
        transform="translate(-147.14031 -169.35917)" fill="#e6e6e6" />
    <path id="ecbdc040-0b9a-4be9-8952-5ef77de340c4-109" data-name="Ellipse 1"
        d="M1036.18668,426.81757a5.78588,5.78588,0,0,1,2.348.4,5.54084,5.54084,0,0,1,1.887,1.255,5.6089,5.6089,0,0,1,1.234,1.915,5.95792,5.95792,0,0,1,.39,2.382,6.43894,6.43894,0,0,1-.571,2.412,6.75574,6.75574,0,0,1-1.384,2,6.678,6.678,0,0,1-1.99,1.372,6.25384,6.25384,0,0,1-2.389.546,5.779,5.779,0,0,1-2.346-.421,5.53912,5.53912,0,0,1-1.875-1.265,5.613,5.613,0,0,1-1.22-1.916,5.962,5.962,0,0,1-.38-2.371,6.441,6.441,0,0,1,.569-2.4,6.75611,6.75611,0,0,1,1.372-1.982,6.68121,6.68121,0,0,1,1.976-1.373A6.261,6.261,0,0,1,1036.18668,426.81757Z"
        transform="translate(-147.14031 -169.35917)" fill="#f2f2f2" />
    <path
        d="M400.34607,504.77875l-14.70691-80.39783,1.03583-49.71985-33.14655-1.03583,6.215,55.93482,21.432,77.56341a14.00743,14.00743,0,1,0,19.17065-2.34472Z"
        transform="translate(-147.14031 -169.35917)" fill="#ffb8b8" />
    <path
        d="M351.45678,378.8044a52.381,52.381,0,0,1,37.28987,0L386.675,337.3712a16.57325,16.57325,0,0,0-16.57326-16.57327h0a16.57325,16.57325,0,0,0-16.57326,16.57327Z"
        transform="translate(-147.14031 -169.35917)" fill="#6c63ff" />
</svg>