<svg width="108" height="108" viewBox="0 0 108 108" fill="none" xmlns="http://www.w3.org/2000/svg">
<rect width="108" height="108" rx="25" fill="#6167FF"/>
<rect width="26" height="6" rx="3" transform="matrix(-1.19249e-08 -1 -1 1.19249e-08 58 75)" fill="white"/>
<rect width="42" height="6" rx="3" transform="matrix(-1.19249e-08 -1 -1 1.19249e-08 48 75)" fill="white"/>
<rect width="30" height="6" rx="3" transform="matrix(-1.19249e-08 -1 -1 1.19249e-08 38 75)" fill="white"/>
<rect width="22" height="6" rx="3" transform="matrix(-1.19249e-08 -1 -1 1.19249e-08 28 75)" fill="white"/>
<path fill-rule="evenodd" clip-rule="evenodd" d="M74.8178 51.6357C74.0744 51.8681 73.4366 52.3037 72.9577 52.8698C72.4789 52.3037 71.8411 51.8681 71.0977 51.6357C68.6588 50.8732 66.8715 48.6497 66.7439 46L79.1716 46C79.0441 48.6497 77.2567 50.8732 74.8178 51.6357ZM71.0977 59.2712C71.8411 59.0388 72.4789 58.6032 72.9577 58.0371C73.4366 58.6032 74.0743 59.0388 74.8178 59.2712C77.2567 60.0337 79.044 62.2572 79.1716 64.9069H66.7438C66.8714 62.2572 68.6588 60.0337 71.0977 59.2712ZM83.1789 45.6962C83.1789 48.5309 82.025 51.096 80.1613 52.9476C79.0129 54.0884 77.5949 54.9584 76.0114 55.4535C77.5949 55.9485 79.0128 56.8185 80.1613 57.9594C82.025 59.8109 83.1788 62.376 83.1788 65.2106V66.9069C83.1788 68.0114 82.2834 68.9069 81.1788 68.9069H64.7365C63.632 68.9069 62.7366 68.0114 62.7366 66.9069V65.2106C62.7366 62.376 63.8905 59.8108 65.7542 57.9593C66.9026 56.8184 68.3205 55.9485 69.9041 55.4534C68.3205 54.9583 66.9026 54.0884 65.7542 52.9475C63.8905 51.096 62.7366 48.5309 62.7366 45.6962L62.7366 44C62.7366 42.8954 63.6321 42 64.7366 42L81.1789 42C82.2835 42 83.1789 42.8954 83.1789 44L83.1789 45.6962ZM64.5 70.1094C63.1193 70.1094 62 71.2287 62 72.6094C62 73.9901 63.1193 75.1094 64.5 75.1094H81.7839C83.1647 75.1094 84.2839 73.9901 84.2839 72.6094C84.2839 71.2287 83.1647 70.1094 81.7839 70.1094H64.5Z" fill="white"/>
</svg>
